# xmcd
#
# Track frame offsets:
#	150
#	12349
#	22030
#	33158
#	47412
#	67789
#	87743
#	99176
#	110922
#	123604
#	138122
#	158967
#
# Disc length: 2313 seconds
#
# Revision: 1
# Processed by: cddbd v1.5.2PL0 Copyright (c) Steve Scherf et al.
# Submitted via: audiograbber 1.83.01
#
DISCID=9709070c
DTITLE=Various Artist - Country Show
DYEAR=1900
DGENRE=Country
TTITLE0=Peter Abrahamsen and Roxy Trioen - Oh, lonesome me
TTITLE1=Teddy Nelson - Diggy liggy lo
TTITLE2=Peter Abrahamsen, Tamra Rosanes and Roxy Trioen - Pick a bale of cotton
TTITLE3=Charlie McCoy - Barefootin'
TTITLE4=Teddy Edelmann - In the early morning rain
TTITLE5=The United - Guitar man
TTITLE6=Charlie McCoy - Harmonica Jones
TTITLE7=Peter Abrahamsen, Tamra Rosanes and Roxy Trioen - Jambalaya
TTITLE8=Charlie McCoy - Scotland
TTITLE9=Teddy Nelson - Jippy ja ja jippy
TTITLE10=Peter Abrahamsen and Roxy Trioen - Langt bort
TTITLE11=Teddy Edelmann - Lost my baby blues
EXTD=
EXTT0=
EXTT1=
EXTT2=
EXTT3=
EXTT4=
EXTT5=
EXTT6=
EXTT7=
EXTT8=
EXTT9=
EXTT10=
EXTT11=
PLAYORDER=
